<?xml version="1.0" encoding="UTF-8"?>
<svg id="DSA_Logo" xmlns="http://www.w3.org/2000/svg" xmlns:xlink="http://www.w3.org/1999/xlink" version="1.1" viewBox="0 0 744 837.4">
  <!-- Generator: Adobe Illustrator 29.2.0, SVG Export Plug-In . SVG Version: 2.1.0 Build 108)  -->
  <defs>
    <style>
      .st0 {
        fill: url(#Unbenannter_Verlauf_1351);
      }

      .st1 {
        fill: url(#Unbenannter_Verlauf_1352);
      }

      .st2 {
        fill: url(#Unbenannter_Verlauf_135);
      }
    </style>
    <linearGradient id="Unbenannter_Verlauf_135" data-name="Unbenannter Verlauf 135" x1="545" y1="227.6" x2="545" y2="615.5" gradientUnits="userSpaceOnUse">
      <stop offset="0" stop-color="#000"/>
      <stop offset="0" stop-color="#040001"/>
      <stop offset=".1" stop-color="#100305"/>
      <stop offset=".2" stop-color="#25080c"/>
      <stop offset=".3" stop-color="#420e15"/>
      <stop offset=".3" stop-color="#671622"/>
      <stop offset=".4" stop-color="#952031"/>
      <stop offset=".5" stop-color="#cb2b42"/>
      <stop offset=".5" stop-color="#ee334e"/>
      <stop offset=".5" stop-color="#f04948"/>
      <stop offset=".6" stop-color="#f46e40"/>
      <stop offset=".7" stop-color="#f78b39"/>
      <stop offset=".8" stop-color="#faa034"/>
      <stop offset=".9" stop-color="#fbac31"/>
      <stop offset="1" stop-color="#fcb131"/>
    </linearGradient>
    <linearGradient id="Unbenannter_Verlauf_1351" data-name="Unbenannter Verlauf 135" x1="368.4" y1="227.6" x2="368.4" y2="615.5" xlink:href="#Unbenannter_Verlauf_135"/>
    <linearGradient id="Unbenannter_Verlauf_1352" data-name="Unbenannter Verlauf 135" x1="286.4" y1="227.6" x2="286.4" y2="615.5" xlink:href="#Unbenannter_Verlauf_135"/>
  </defs>
  <g>
    <path d="M225.2,699.7l-.7-7.3h-15.2l-3.6,7.4c-.6,1.2-1.1,1.9-1.5,2.2-.4.3-1.2.4-2.3.4h-6.4c-1,0-1.5-.4-1.5-1.3s.1-.6.3-1.1l23.5-43.6c.4-.7.7-1.2,1.2-1.4.4-.2,1.1-.3,2-.3h7.8c.9,0,1.5.2,1.8.5.3.3.5.9.6,1.7l4.7,41.9c0,.2,0,.6,0,1.1,0,.8-.2,1.5-.5,1.8-.3.4-.9.6-1.7.6h-5.9c-.9,0-1.6-.2-1.9-.5-.4-.4-.6-1.1-.7-2.2ZM222,666.3l-8.5,17.5h10.2l-1.7-17.5Z"/>
    <path d="M241.3,699l8.8-41.7c.2-1,.6-1.7,1-2,.4-.3,1.2-.5,2.4-.5h12.2c4.4,0,7.9,1,10.6,2.9,2.6,1.9,3.9,4.5,3.9,7.8s0,.8-.1,1.3c0,.4-.1.9-.2,1.5l-.2.9c-.4,1.9-1.2,3.6-2.5,5.1s-2.8,2.6-4.5,3.3c1.7.7,2.9,1.8,3.9,3.4s1.4,3.2,1.4,5,0,1.3-.3,2.3l-.3,1.3c-.8,4.2-2.8,7.3-5.8,9.5-3,2.2-6.9,3.3-11.6,3.3h-16.8c-1.4,0-2.1-.6-2.1-1.7s0-.4.1-.7c0-.3.1-.6.2-.9ZM255.4,682.3l-2.3,10.9h6c4.4,0,6.9-1.7,7.4-5v-.8c.2-.3.2-.6.2-1,0-2.8-1.9-4.2-5.8-4.2h-5.6ZM259.4,663.9l-2.1,9.9h5.3c4,0,6.2-1.5,6.8-4.5v-.7c.2-.3.2-.6.2-1,0-2.5-1.7-3.7-5.2-3.7h-4.9Z"/>
    <path d="M321.7,658.7l-.8,4c0,.4-.2.8-.3,1-.1.2-.4.6-.8,1l-24.7,27.9h17.6c1.3,0,2,.6,2,1.7s0,.7,0,.9l-.9,4.2c-.2,1.3-.5,2.1-.9,2.5-.4.4-1.1.6-2.1.6h-29.1c-1.2,0-1.8-.7-1.8-2s0-.3,0-.4c0-.2,0-.3.1-.6l1.1-5.2c0-.4.4-1,1.1-1.7l24.5-27.9h-15.7c-1.3,0-2-.7-2-2.1s0-.2,0-.3c0,0,0-.3.1-.6l.8-3.8c.3-1.3.6-2.1,1-2.5.4-.4,1.1-.6,2.1-.6h27.5c1.2,0,1.7.7,1.7,2.1s0,.5,0,.8c0,.4-.1.7-.2,1Z"/>
    <path d="M333.2,654.7h24.1c1.5,0,2.2.6,2.2,1.7s0,.4,0,.5c0,.2,0,.4-.1.6l-.8,3.8c-.2,1.2-.5,2-.9,2.4s-1.1.6-2.1.6h-16.4l-1.9,8.8h14.5c1.5,0,2.2.6,2.2,1.7s0,.4,0,.5c0,.2,0,.4-.1.6l-.7,3.6c-.2,1.2-.5,2-.9,2.4-.4.4-1.1.6-2.1.6h-14.7l-2.2,10.2h17c1.5,0,2.2.6,2.2,1.7s0,.4,0,.5c0,.2,0,.4-.1.6l-.8,3.8c-.2,1.2-.5,2-.9,2.4-.4.4-1.1.6-2.1.6h-25.4c-1.4,0-2.1-.6-2.1-1.7s0-.4.1-.7c0-.3.1-.6.2-1l8.8-41.7c.2-1,.6-1.7,1-2,.4-.3,1.2-.5,2.4-.5Z"/>
    <path d="M359.5,699l8.8-41.7c.2-1,.6-1.7,1-2,.4-.3,1.2-.5,2.4-.5h5.5c1.4,0,2.1.6,2.1,1.7s0,.4,0,.7c0,.3-.1.6-.2.9l-8.8,41.7c-.2,1.1-.6,1.8-1,2.1-.4.3-1.3.5-2.4.5h-5.5c-1.4,0-2.1-.6-2.1-1.7s0-.4.1-.7c0-.3.1-.6.2-.9Z"/>
    <path d="M405.8,687.6c.4-.9.7-1.5,1.1-1.8.4-.3,1.1-.4,2.1-.4h5.5c1.7,0,2.5.6,2.5,1.7s0,.2,0,.4c0,.2,0,.4-.1.7v.3c-.9,4.6-3,8.2-6.5,10.9-3.4,2.7-7.6,4-12.7,4s-9-1.3-11.8-4c-2.8-2.7-4.3-6.4-4.3-11.2s0-1.9.2-2.9c.1-1,.3-2,.5-2.9l2.1-9.9c2.8-12.6,9.6-19,20.6-19s8.5,1.1,11.3,3.3c2.7,2.2,4.1,5.3,4.1,9.1s0,.6,0,.9c0,.3,0,.7-.2,1.4-.2,1.3-.4,2.2-.8,2.6-.3.4-1,.6-2,.6h-5.9c-1.7,0-2.5-.7-2.5-2s0-.5,0-.9c0-.4,0-.6,0-.8,0-3.2-1.7-4.8-5-4.8s-7.2,3.2-8.6,9.6l-2.3,10.4c-.4,1.9-.6,3.5-.6,4.9,0,4.2,1.9,6.2,5.7,6.2s3.3-.5,4.5-1.5c1.1-1,2.1-2.7,2.9-5Z"/>
    <path d="M466.7,658.1l-8.8,41.7c-.2,1-.6,1.7-1,2-.4.3-1.3.5-2.4.5h-5.5c-1.4,0-2.1-.6-2.1-1.7s0-.4.1-.7c0-.3.1-.6.2-.9l3.5-16.5h-14.1l-3.7,17.4c-.2,1.1-.6,1.8-1,2.1-.4.3-1.3.5-2.4.5h-5.5c-1.4,0-2.1-.6-2.1-1.7s0-.4.1-.7c0-.3.1-.6.2-.9l8.8-41.7c.2-1,.6-1.7,1-2,.4-.3,1.2-.5,2.4-.5h5.5c1.4,0,2.1.6,2.1,1.7s0,.4,0,.7c0,.3-.1.6-.2.9l-3.1,14.8h14.1l3.3-15.7c.2-1,.6-1.7,1-2,.4-.3,1.2-.5,2.4-.5h5.5c1.4,0,2.1.6,2.1,1.7s0,.4,0,.7c0,.3-.1.6-.2.9Z"/>
    <path d="M480.4,654.7h24.1c1.5,0,2.2.6,2.2,1.7s0,.4,0,.5c0,.2,0,.4-.1.6l-.8,3.8c-.2,1.2-.5,2-.9,2.4s-1.1.6-2.1.6h-16.4l-1.9,8.8h14.5c1.5,0,2.2.6,2.2,1.7s0,.4,0,.5c0,.2,0,.4-.1.6l-.7,3.6c-.2,1.2-.5,2-.9,2.4-.4.4-1.1.6-2.1.6h-14.7l-2.2,10.2h17c1.5,0,2.2.6,2.2,1.7s0,.4,0,.5c0,.2,0,.4-.1.6l-.8,3.8c-.2,1.2-.5,2-.9,2.4-.4.4-1.1.6-2.1.6h-25.4c-1.4,0-2.1-.6-2.1-1.7s0-.4.1-.7c0-.3.1-.6.2-1l8.8-41.7c.2-1,.6-1.7,1-2,.4-.3,1.2-.5,2.4-.5Z"/>
    <path d="M549.6,658.1l-8.8,41.7c-.2,1.1-.6,1.8-1,2.1-.4.3-1.3.5-2.4.5h-4.4c-1.2,0-2-.1-2.4-.4-.4-.3-.8-1-1.1-2l-7.3-25.2-5.3,25.1c-.2,1-.5,1.7-.9,2-.4.4-1.2.5-2.3.5h-5c-1.4,0-2.1-.6-2.1-1.7s0-.4.1-.7c0-.3.1-.6.2-.9l8.8-41.7c.2-1,.6-1.7,1-2,.4-.3,1.2-.5,2.4-.5h4.4c1.2,0,2,.1,2.4.4.4.3.8,1,1.1,2l7.3,25.2,5.3-25.1c.2-1,.6-1.7,1-2,.4-.3,1.2-.5,2.4-.5h4.9c1.4,0,2.1.6,2.1,1.7s0,.4,0,.7c0,.3-.1.6-.2.9Z"/>
  </g>
  <g>
    <path class="st2" d="M601.5,433.4h-95.2c-4.3,16.6-12.9,28.8-25.9,36.5h35l-29.2,135.8c-.2,1.2-.4,2.3-.6,3.5-.2,1.2-.4,2.1-.4,2.8,0,4.3,2.7,6.5,8,6.5h20.5c4.3,0,7.3-.6,9-1.8,1.7-1.2,2.9-3.8,3.8-7.8l30-139h36.2c4.3,0,7.3-.6,9-1.8,1.7-1.2,2.9-3.8,3.8-7.8l3-14.2c.3-1.2.6-2.3.8-3.5.2-1.2.2-2.1.2-2.8,0-4.3-2.7-6.5-8-6.5Z"/>
    <path class="st0" d="M456,463.6c19.5-7.8,31.4-23.5,35.8-47l.8-4c.3-2.5.6-4.8.9-7,.2-2.2.4-4.1.4-5.8,0-14.8-4.9-26.3-14.6-34.5-9.8-8.2-23.4-12.2-40.9-12.2h-47c-4.3,0-7.3.6-9,1.9-1.7,1.2-2.9,3.8-3.8,7.6l-15.2,71.8h-33.3c-40.8,0-66.3,23.7-76.5,71l-8.2,38c-1.5,7.2-2.2,14-2.2,20.5,0,17.7,5.4,31.5,16.2,41.5,10.8,10,25.8,15,45,15,40.8,0,66.3-23.7,76.5-71l8.2-38c1.5-7.3,2.2-12,2.2-18.4s-3.2-6.7-9.5-6.7h-10.8c-.1,0-.3,0-.4,0-.1,0-.3,0-.4,0h-8.2s-8,0-10.3,3c-2.2,2.9-2,6-2.1,7.2-.2,3.1-.7,6.5-1.4,10.1l-9,42.8c-5,24-16,36-33,36s-21.8-7.9-21.8-23.8.5-8.5,1.5-13.5l9-42.8c5-24,16-36,33-36h69s-15,0-15,0h33.7s16.2,52.2,16.2,52.2c1.3,4,2.7,6.6,4.1,7.8,1.4,1.2,4,1.8,7.6,1.8h23.2c6.3,0,9.5-2.2,9.5-6.8s-.2-1.9-.5-2.8l-20-58ZM452.5,407.6c0,.8-.2,1.9-.5,3.2l-.5,2.8c-2.7,14.3-11.8,21.5-27.5,21.5h-20.5l10-47.3h19c13.3,0,20,5.6,20,16.8v3Z"/>
    <path class="st1" d="M254.1,462.4c5.6-8.5,8.4-18.5,8.4-30s-2.8-19.9-8.5-27.6c-5.7-7.8-14.9-15-27.8-21.9l-14-7.5c-5.8-3.2-9.8-6.1-11.9-8.8-2.1-2.7-3.1-6.1-3.1-10.2,0-6.3,1.9-11.2,5.8-14.5,3.8-3.3,9.3-5,16.5-5h84.2l-13.9,65.8c-.2,1.2-.4,2.3-.6,3.5-.2,1.2-.4,2.1-.4,2.8,0,4.3,2.7,6.5,8,6.5h20.5c4.3,0,7.4-.6,9.1-1.9s3-3.8,3.6-7.6l14.2-68.5h23.2c19.3,0,34.9-4.7,46.6-14,11.8-9.3,19.2-22.8,22.4-40.2l.8-4.2c.3-2.5.6-4.8.9-7,.2-2.2.4-4.2.4-6,0-15.3-5-27.2-15.1-35.8-10.1-8.5-24.1-12.8-42.1-12.8h-41.8c-4.3,0-7.3.6-9,1.9-1.7,1.2-2.9,3.8-3.8,7.6l-16,76.5h-88.2c-13.5,0-25.3,2.4-35.4,7.1-10.1,4.8-17.9,11.4-23.5,19.9-5.6,8.5-8.4,18.5-8.4,30s2.7,19,8,26.6c5.3,7.6,13.8,14.4,25.5,20.4l13,6.8c7,3.7,11.8,7,14.5,10,2.7,3,4,6.7,4,11,0,6.7-2.1,11.8-6.2,15.4-4.2,3.6-10.1,5.4-17.8,5.4-11.7,0-18.6-5.2-20.8-15.5-.7-3.7-1.8-6.1-3.2-7.2-1.5-1.2-4.2-1.8-8-1.8h-16.5c-5.3,0-8.9.8-10.8,2.4-1.8,1.6-2.8,4.8-2.8,9.6,0,14.2,5.4,25.4,16.2,33.6,10.8,8.2,25.5,12.4,44,12.4s25.8-2.4,36-7.1c10.2-4.8,18-11.4,23.6-19.9ZM362.2,252.2h14.5c14.5,0,21.8,5.6,21.8,16.8s-.3,5.1-1,7.8l-.8,3c-2,8-5.3,13.8-10,17.5-4.7,3.7-10.9,5.5-18.8,5.5h-16.5l10.8-50.5Z"/>
  </g>
  <g>
    <path d="M188.1,179.7l8.8-41.7c.2-1,.6-1.7,1-2,.4-.3,1.2-.5,2.4-.5h12.7c4.9,0,8.8,1.4,11.7,4.2,2.9,2.8,4.3,6.5,4.3,11.2s-.2,3.4-.6,5.3l-1.7,7.9c-1.3,6.3-3.7,11.1-7.2,14.3-3.5,3.2-7.9,4.9-13.3,4.9h-16.1c-1.4,0-2.1-.6-2.1-1.7s0-.4.1-.7c0-.3.1-.6.2-.9ZM206.4,144.8l-6.2,28.9h5.2c2.9,0,5-.7,6.6-2.2,1.5-1.5,2.7-4,3.4-7.5l1.9-9.2c.3-1.3.4-2.4.4-3.4,0-4.3-2.2-6.5-6.6-6.5h-4.8Z"/>
    <path d="M243.7,135.4h24.1c1.5,0,2.2.6,2.2,1.7s0,.4,0,.5c0,.2,0,.4-.1.6l-.8,3.8c-.2,1.2-.5,2-.9,2.4-.4.4-1.1.6-2.1.6h-16.4l-1.9,8.8h14.5c1.5,0,2.2.6,2.2,1.7s0,.4,0,.5c0,.2,0,.4-.1.6l-.7,3.6c-.2,1.2-.5,2-.9,2.4-.4.4-1.1.6-2.1.6h-14.7l-2.2,10.2h17c1.5,0,2.2.6,2.2,1.7s0,.4,0,.5c0,.2,0,.4-.1.6l-.8,3.8c-.2,1.2-.5,2-.9,2.4-.4.4-1.1.6-2.1.6h-25.4c-1.4,0-2.1-.6-2.1-1.7s0-.4.1-.7c0-.3.1-.6.2-1l8.8-41.7c.2-1,.6-1.7,1-2,.4-.3,1.2-.5,2.4-.5Z"/>
    <path d="M305.4,135.4h5.6c1.4,0,2.1.6,2.1,1.7s0,.4,0,.7c0,.3-.1.6-.2.9l-5.8,27.6c-2.5,11.8-9.1,17.8-19.7,17.8s-8.7-1.2-11.5-3.7c-2.8-2.5-4.2-6-4.2-10.4s.2-2.6.5-4.1l6-28c.2-1.1.5-1.8,1-2.1.4-.3,1.2-.5,2.4-.5h5.5c1.4,0,2.1.6,2.1,1.7s0,.4,0,.7c0,.3-.1.6-.2.9l-5.7,26.8c-.3,1.6-.5,2.8-.5,3.6,0,1.7.5,2.9,1.4,3.9.9.9,2.3,1.4,4,1.4,4.1,0,6.7-2.8,7.9-8.4l6-28.1c.2-1.1.6-1.8,1-2.1.4-.3,1.2-.5,2.3-.5Z"/>
    <path d="M354.3,138.8l-.8,3.8c-.2,1.1-.6,1.8-1,2.1-.4.3-1.3.5-2.4.5h-9.7l-7.5,35.4c-.2,1.1-.6,1.8-1,2.1-.4.3-1.3.5-2.4.5h-5.5c-1.4,0-2.1-.6-2.1-1.7s0-.4.1-.7c0-.3.1-.6.2-.9l7.3-34.5h-10.2c-1.4,0-2.1-.6-2.1-1.7s0-.4.1-.7c0-.3.1-.6.2-.9l.8-3.8c.2-1,.6-1.7,1-2,.4-.3,1.2-.5,2.4-.5h30.9c1.4,0,2.1.6,2.1,1.7s0,.4,0,.7c0,.3-.1.6-.2.9Z"/>
    <path d="M354.6,168.6h4.4c1,0,1.7.2,2.1.5.4.3.7,1,.9,1.9.6,2.8,2.4,4.2,5.6,4.2s3.6-.5,4.8-1.4c1.1-1,1.7-2.3,1.7-4.1s-.4-2.1-1.1-2.9c-.7-.8-2-1.7-3.9-2.7l-3.5-1.8c-3.1-1.6-5.4-3.4-6.8-5.5-1.4-2-2.1-4.4-2.1-7.1s.7-5.8,2.2-8c1.5-2.3,3.6-4.1,6.3-5.3,2.7-1.3,5.9-1.9,9.5-1.9s8.6,1.1,11.3,3.3c2.8,2.2,4.2,5.2,4.2,9s-.2,1.9-.6,2.3c-.4.4-1.2.6-2.4.6h-4.2c-1.2,0-2-.2-2.5-.5-.4-.3-.8-1-.9-1.9-.5-2.6-2.4-3.9-5.6-3.9s-3.4.4-4.4,1.3c-1,.9-1.5,2.2-1.5,3.9s.3,2,.8,2.7c.6.7,1.6,1.5,3.2,2.3l3.8,2c3.4,1.8,5.9,3.8,7.4,5.9,1.5,2.1,2.3,4.5,2.3,7.4s-.7,5.8-2.2,8c-1.5,2.3-3.6,4.1-6.3,5.3-2.7,1.3-5.9,1.9-9.6,1.9s-8.9-1.1-11.8-3.3c-2.9-2.2-4.4-5.2-4.4-9s.2-2.2.7-2.6c.5-.4,1.5-.6,2.9-.6Z"/>
    <path d="M416.7,168.3c.4-.9.7-1.5,1.1-1.8.4-.3,1.1-.4,2.1-.4h5.5c1.7,0,2.5.6,2.5,1.7s0,.2,0,.4c0,.2,0,.4-.1.7v.3c-.9,4.6-3,8.2-6.5,10.9-3.4,2.7-7.6,4-12.7,4s-9-1.3-11.8-4c-2.8-2.7-4.3-6.4-4.3-11.2s0-1.9.2-2.9c.1-1,.3-2,.5-2.9l2.1-9.9c2.8-12.6,9.6-19,20.6-19s8.5,1.1,11.3,3.4c2.7,2.2,4.1,5.3,4.1,9.1s0,.6,0,.9c0,.3,0,.7-.2,1.4-.2,1.3-.4,2.2-.8,2.6-.3.4-1,.6-2,.6h-5.9c-1.7,0-2.5-.7-2.5-2s0-.5,0-.9c0-.4,0-.6,0-.8,0-3.2-1.7-4.8-5-4.8s-7.2,3.2-8.6,9.6l-2.3,10.4c-.4,1.9-.6,3.5-.6,4.9,0,4.2,1.9,6.2,5.7,6.2s3.3-.5,4.5-1.5c1.1-1,2.1-2.7,2.9-5Z"/>
    <path d="M477.6,138.8l-8.8,41.7c-.2,1-.6,1.7-1,2-.4.3-1.3.5-2.4.5h-5.5c-1.4,0-2.1-.6-2.1-1.7s0-.4.1-.7c0-.3.1-.6.2-.9l3.5-16.5h-14.1l-3.7,17.4c-.2,1.1-.6,1.8-1,2.1-.4.3-1.3.5-2.4.5h-5.5c-1.4,0-2.1-.6-2.1-1.7s0-.4.1-.7c0-.3.1-.6.2-.9l8.8-41.7c.2-1,.6-1.7,1-2,.4-.3,1.2-.5,2.4-.5h5.5c1.4,0,2.1.6,2.1,1.7s0,.4,0,.7c0,.3-.1.6-.2.9l-3.1,14.8h14.1l3.3-15.7c.2-1,.6-1.7,1-2,.4-.3,1.2-.5,2.4-.5h5.5c1.4,0,2.1.6,2.1,1.7s0,.4,0,.7c0,.3-.1.6-.2.9Z"/>
    <path d="M491.3,135.4h24.1c1.5,0,2.2.6,2.2,1.7s0,.4,0,.5c0,.2,0,.4-.1.6l-.8,3.8c-.2,1.2-.5,2-.9,2.4-.4.4-1.1.6-2.1.6h-16.4l-1.9,8.8h14.5c1.5,0,2.2.6,2.2,1.7s0,.4,0,.5c0,.2,0,.4-.1.6l-.7,3.6c-.2,1.2-.5,2-.9,2.4-.4.4-1.1.6-2.1.6h-14.7l-2.2,10.2h17c1.5,0,2.2.6,2.2,1.7s0,.4,0,.5c0,.2,0,.4-.1.6l-.8,3.8c-.2,1.2-.5,2-.9,2.4-.4.4-1.1.6-2.1.6h-25.4c-1.4,0-2.1-.6-2.1-1.7s0-.4.1-.7c0-.3.1-.6.2-1l8.8-41.7c.2-1,.6-1.7,1-2,.4-.3,1.2-.5,2.4-.5Z"/>
    <path d="M520.5,168.6h4.4c1,0,1.7.2,2.1.5.4.3.7,1,.9,1.9.6,2.8,2.4,4.2,5.6,4.2s3.6-.5,4.8-1.4c1.1-1,1.7-2.3,1.7-4.1s-.4-2.1-1.1-2.9c-.7-.8-2-1.7-3.9-2.7l-3.5-1.8c-3.1-1.6-5.4-3.4-6.8-5.5-1.4-2-2.1-4.4-2.1-7.1s.7-5.8,2.2-8c1.5-2.3,3.6-4.1,6.3-5.3,2.7-1.3,5.9-1.9,9.5-1.9s8.6,1.1,11.3,3.3c2.8,2.2,4.2,5.2,4.2,9s-.2,1.9-.6,2.3c-.4.4-1.2.6-2.4.6h-4.2c-1.2,0-2-.2-2.5-.5-.4-.3-.8-1-.9-1.9-.5-2.6-2.4-3.9-5.6-3.9s-3.4.4-4.4,1.3c-1,.9-1.5,2.2-1.5,3.9s.3,2,.8,2.7c.6.7,1.6,1.5,3.2,2.3l3.8,2c3.4,1.8,5.9,3.8,7.4,5.9,1.5,2.1,2.3,4.5,2.3,7.4s-.7,5.8-2.2,8c-1.5,2.3-3.6,4.1-6.3,5.3-2.7,1.3-5.9,1.9-9.6,1.9s-8.9-1.1-11.8-3.3c-2.9-2.2-4.4-5.2-4.4-9s.2-2.2.7-2.6c.5-.4,1.5-.6,2.9-.6Z"/>
  </g>
</svg>